<svg width="32" height="32" viewBox="0 0 32 32" fill="none" xmlns="http://www.w3.org/2000/svg">
<g clip-path="url(#clip0_36_14)">
<path d="M22.85 15.24H21.33V13.72H19.81V12.19H18.28V10.67H16.76V9.14H15.24V7.62H13.71V6.1H12.19V24.38H13.71V22.86H15.24V21.34H16.76V19.81H18.28V18.29H24.38V16.76H22.85V15.24ZM15.24 18.29H13.71V12.19H15.24V18.29ZM30.47 12.19H32V19.81H30.47V12.19ZM28.95 19.81H30.47V22.86H28.95V19.81ZM28.95 9.14H30.47V12.19H28.95V9.14ZM27.43 22.86H28.95V25.91H27.43V22.86ZM27.43 6.1H28.95V9.14H27.43V6.1ZM25.9 25.91H27.43V27.43H25.9V25.91ZM25.9 4.57H27.43V6.1H25.9V4.57ZM22.85 27.43H25.9V28.95H22.85V27.43ZM22.85 3.05H25.9V4.57H22.85V3.05ZM19.81 28.95H22.85V30.48H19.81V28.95ZM19.81 1.53H22.85V3.05H19.81V1.53ZM12.19 30.48H19.81V32H12.19V30.48ZM12.19 0H19.81V1.53H12.19V0ZM9.14 28.95H12.19V30.48H9.14V28.95ZM9.14 1.53H12.19V3.05H9.14V1.53ZM6.09 27.43H9.14V28.95H6.09V27.43ZM6.09 3.05H9.14V4.57H6.09V3.05ZM4.57 25.91H6.09V27.43H4.57V25.91ZM4.57 4.57H6.09V6.1H4.57V4.57ZM3.04 22.86H4.57V25.91H3.04V22.86ZM3.04 6.1H4.57V9.14H3.04V6.1ZM1.52 19.81H3.04V22.86H1.52V19.81ZM1.52 9.14H3.04V12.19H1.52V9.14ZM0 12.19H1.52V19.81H0V12.19Z" fill="black"/>
</g>
<defs>
<clipPath id="clip0_36_14">
<rect width="32" height="32" fill="white"/>
</clipPath>
</defs>
</svg>
